<?xml version="1.0" encoding="utf-8"?>
<!-- Generator: Adobe Illustrator 16.0.0, SVG Export Plug-In . SVG Version: 6.00 Build 0)  -->
<!DOCTYPE svg PUBLIC "-//W3C//DTD SVG 1.1//EN" "http://www.w3.org/Graphics/SVG/1.1/DTD/svg11.dtd">
<svg version="1.1" id="Layer_1" xmlns="http://www.w3.org/2000/svg" xmlns:xlink="http://www.w3.org/1999/xlink" x="0px" y="0px"
	 width="1100px" height="1100px" viewBox="0 0 1100 1100" enable-background="new 0 0 1100 1100" xml:space="preserve">
<g>
	<path fill="#237DAC" d="M1094.09,550c0,300.49-243.6,544.09-544.09,544.09S5.91,850.49,5.91,550S249.51,5.91,550,5.91
		S1094.09,249.51,1094.09,550"/>
	<g transform="matrix(1.61319 0 0 1.7559 142.74 150.3)">
		<path fill="#FFFFFF" d="M252.45,382.5c64.33-1.896,114.53-53.38,104.94-120.58c-4.573-32.01-29.893-69.53-46.633-98.45
			c-19.927-34.422-39.99-63.09-58.3-90.71h-0.001c-18.313,27.628-38.38,56.29-58.3,90.71c-16.741,28.919-42.06,66.43-46.633,98.45
			c-9.6,67.2,40.605,118.69,104.94,120.58"/>
	</g>
	<g transform="matrix(.93219 0 0 1.1036 272.84 121.41)">
		<path fill="#5CA9D6" d="M168.594,543.23c64.33-1.896,114.54-53.38,104.94-120.58c-4.573-32.01-29.893-69.53-46.633-98.45
			c-19.926-34.422-39.99-63.09-58.3-90.71h-0.001c-18.312,27.628-38.38,56.29-58.3,90.71c-16.741,28.919-42.06,66.429-46.633,98.45
			c-9.601,67.2,40.604,118.68,104.93,120.58"/>
	</g>
</g>
</svg>
