<?xml version="1.0" encoding="utf-8"?>
<!-- Generator: Adobe Illustrator 16.0.0, SVG Export Plug-In . SVG Version: 6.00 Build 0)  -->
<!DOCTYPE svg PUBLIC "-//W3C//DTD SVG 1.1//EN" "http://www.w3.org/Graphics/SVG/1.1/DTD/svg11.dtd">
<svg version="1.1" id="Layer_1" xmlns="http://www.w3.org/2000/svg" xmlns:xlink="http://www.w3.org/1999/xlink" x="0px" y="0px"
	 width="1100px" height="1100px" viewBox="0 0 1100 1100" enable-background="new 0 0 1100 1100" xml:space="preserve">
<g>
	<path fill="#FFFFFF" d="M1079.84,550c0,292.62-237.22,529.84-529.84,529.84S20.16,842.62,20.16,550S257.38,20.16,550,20.16
		S1079.84,257.38,1079.84,550"/>
	<path fill="#237DAC" d="M1038.585,550c0,269.835-218.749,488.585-488.585,488.585S61.415,819.835,61.415,550
		C61.415,280.164,280.164,61.415,550,61.415S1038.585,280.164,1038.585,550"/>
	<g>
		<path fill="#383A3C" d="M464.495,1047.604c-0.303-0.62-0.753-1.116-1.355-1.486c-0.6-0.37-1.21-0.612-1.828-0.726
			c-0.789-0.146-1.534-0.134-2.233,0.035c-0.7,0.168-1.328,0.461-1.887,0.878c-0.56,0.417-1.026,0.94-1.4,1.57
			c-0.376,0.629-0.636,1.339-0.779,2.13c-0.152,0.834-0.169,1.617-0.051,2.352c0.118,0.735,0.357,1.393,0.72,1.972
			s0.834,1.063,1.417,1.452c0.582,0.39,1.269,0.657,2.059,0.803c0.82,0.15,1.575,0.121,2.265-0.085
			c0.692-0.207,1.28-0.541,1.766-1.002l1.897,1.932c-0.831,0.724-1.777,1.229-2.839,1.517c-1.063,0.287-2.249,0.312-3.556,0.07
			c-1.192-0.219-2.253-0.619-3.179-1.197c-0.927-0.578-1.685-1.29-2.273-2.134s-0.995-1.795-1.217-2.854
			c-0.222-1.058-0.225-2.184-0.006-3.377c0.222-1.222,0.636-2.286,1.24-3.192c0.604-0.906,1.339-1.637,2.204-2.191
			c0.867-0.553,1.837-0.924,2.911-1.113c1.075-0.188,2.201-0.175,3.379,0.041c0.488,0.091,0.99,0.231,1.504,0.423
			c0.515,0.19,1,0.429,1.453,0.712c0.453,0.284,0.868,0.609,1.248,0.977c0.378,0.367,0.681,0.779,0.91,1.237L464.495,1047.604z"/>
		<path fill="#383A3C" d="M470.086,1052.71c0.175-1.229,0.539-2.311,1.092-3.243c0.553-0.932,1.245-1.692,2.074-2.281
			c0.829-0.59,1.772-1,2.832-1.232c1.059-0.232,2.181-0.264,3.367-0.094c1.2,0.172,2.279,0.519,3.239,1.039
			c0.959,0.521,1.758,1.182,2.397,1.982c0.638,0.8,1.093,1.725,1.364,2.774c0.272,1.05,0.32,2.19,0.145,3.419
			c-0.17,1.201-0.533,2.268-1.086,3.199c-0.553,0.932-1.25,1.703-2.088,2.313c-0.839,0.61-1.795,1.042-2.863,1.294
			c-1.069,0.254-2.205,0.293-3.405,0.121c-1.186-0.17-2.253-0.525-3.203-1.066c-0.947-0.542-1.736-1.224-2.365-2.044
			c-0.628-0.821-1.079-1.756-1.35-2.806C469.967,1055.036,469.916,1053.91,470.086,1052.71z M473.059,1053.136
			c-0.118,0.824-0.098,1.599,0.057,2.321c0.156,0.724,0.432,1.372,0.83,1.945c0.398,0.574,0.898,1.048,1.502,1.422
			c0.603,0.375,1.297,0.617,2.077,0.729c0.781,0.112,1.516,0.073,2.207-0.115c0.692-0.188,1.308-0.503,1.85-0.942
			c0.542-0.438,0.988-0.983,1.34-1.634c0.35-0.651,0.584-1.39,0.702-2.213c0.113-0.796,0.092-1.552-0.065-2.269
			c-0.156-0.716-0.43-1.36-0.82-1.933c-0.393-0.573-0.891-1.05-1.501-1.433s-1.312-0.631-2.108-0.744
			c-0.795-0.114-1.536-0.073-2.221,0.124s-1.294,0.516-1.829,0.956c-0.535,0.439-0.978,0.981-1.327,1.625
			C473.404,1051.62,473.172,1052.34,473.059,1053.136z"/>
		<path fill="#383A3C" d="M493.571,1048.119l5.474,0.551c1.003,0.101,2,0.333,2.992,0.697c0.991,0.363,1.863,0.889,2.619,1.574
			c0.752,0.685,1.335,1.544,1.747,2.576c0.411,1.032,0.543,2.275,0.398,3.729c-0.134,1.353-0.506,2.489-1.111,3.413
			c-0.606,0.923-1.347,1.656-2.224,2.199c-0.877,0.543-1.839,0.913-2.886,1.108c-1.048,0.196-2.074,0.243-3.076,0.143l-5.474-0.551
			L493.571,1048.119z M497.308,1061.667c0.711,0.071,1.433,0.06,2.161-0.036c0.729-0.095,1.401-0.313,2.016-0.656
			c0.614-0.342,1.137-0.836,1.569-1.482c0.43-0.647,0.699-1.494,0.804-2.541c0.11-1.104,0.019-2.024-0.275-2.759
			c-0.294-0.735-0.709-1.327-1.243-1.777c-0.536-0.45-1.153-0.784-1.851-1.001c-0.698-0.217-1.403-0.361-2.115-0.434l-2.29-0.229
			l-1.067,10.686L497.308,1061.667z"/>
		<path fill="#383A3C" d="M513.058,1049.938l5.381,0.344c0.729,0.046,1.431,0.168,2.107,0.365c0.676,0.196,1.268,0.487,1.778,0.871
			c0.51,0.384,0.908,0.87,1.192,1.46c0.284,0.589,0.401,1.292,0.35,2.109c-0.071,1.122-0.447,2.017-1.126,2.684
			c-0.68,0.666-1.573,1.089-2.682,1.268l3.697,7.132l-3.324-0.213l-3.17-6.791l-2.012-0.129l-0.417,6.562l-2.756-0.176
			L513.058,1049.938z M517.643,1056.93c0.394,0.024,0.789,0.021,1.187-0.012c0.397-0.033,0.756-0.12,1.081-0.261
			c0.323-0.141,0.597-0.354,0.82-0.64c0.224-0.285,0.35-0.662,0.379-1.129c0.026-0.422-0.047-0.774-0.218-1.057
			c-0.174-0.282-0.399-0.512-0.682-0.691c-0.281-0.179-0.606-0.31-0.974-0.392c-0.369-0.082-0.727-0.135-1.077-0.157l-2.495-0.159
			l-0.276,4.353L517.643,1056.93z"/>
		<path fill="#383A3C" d="M528.868,1058.625c0.031-1.242,0.268-2.357,0.709-3.348s1.041-1.826,1.796-2.509
			c0.755-0.683,1.644-1.201,2.669-1.556c1.024-0.354,2.136-0.516,3.333-0.485c1.212,0.03,2.325,0.249,3.337,0.654
			c1.013,0.405,1.884,0.969,2.611,1.688c0.728,0.72,1.287,1.585,1.678,2.596c0.392,1.012,0.571,2.138,0.539,3.38
			c-0.029,1.212-0.266,2.313-0.707,3.303c-0.441,0.99-1.043,1.837-1.807,2.542c-0.763,0.703-1.662,1.244-2.693,1.62
			c-1.034,0.375-2.155,0.548-3.368,0.518c-1.198-0.03-2.299-0.259-3.304-0.687c-1.005-0.427-1.868-1.012-2.586-1.753
			c-0.719-0.741-1.275-1.618-1.667-2.629C529.019,1060.949,528.838,1059.837,528.868,1058.625z M531.871,1058.7
			c-0.021,0.833,0.086,1.599,0.325,2.3c0.239,0.7,0.588,1.312,1.051,1.834c0.461,0.523,1.014,0.937,1.656,1.237
			c0.643,0.302,1.359,0.462,2.148,0.481c0.788,0.021,1.515-0.104,2.179-0.372c0.666-0.269,1.241-0.652,1.729-1.151
			s0.869-1.093,1.141-1.779c0.273-0.688,0.42-1.447,0.441-2.281c0.02-0.803-0.089-1.551-0.327-2.244
			c-0.238-0.692-0.585-1.301-1.04-1.824c-0.455-0.522-1.006-0.938-1.657-1.246c-0.649-0.31-1.377-0.474-2.18-0.494
			c-0.803-0.021-1.534,0.107-2.191,0.383c-0.658,0.276-1.226,0.663-1.707,1.163c-0.481,0.499-0.857,1.089-1.13,1.769
			C532.037,1057.155,531.891,1057.896,531.871,1058.7z"/>
		<path fill="#383A3C" d="M551.367,1051.304l5.063-0.065c0.891-0.011,1.695,0.059,2.414,0.211c0.717,0.151,1.334,0.406,1.85,0.765
			c0.517,0.358,0.917,0.821,1.201,1.388c0.285,0.566,0.433,1.251,0.443,2.055c0.01,0.862-0.142,1.588-0.455,2.176
			c-0.314,0.588-0.743,1.065-1.286,1.43c-0.544,0.366-1.18,0.633-1.907,0.803c-0.729,0.17-1.503,0.261-2.32,0.271l-2.126,0.027
			l0.082,6.421l-2.762,0.036L551.367,1051.304z M556.143,1058.016c0.453-0.006,0.884-0.045,1.293-0.115
			c0.408-0.071,0.771-0.192,1.091-0.365c0.319-0.172,0.572-0.405,0.759-0.7c0.186-0.295,0.275-0.676,0.271-1.143
			c-0.007-0.453-0.105-0.821-0.299-1.104c-0.194-0.282-0.449-0.502-0.765-0.659c-0.316-0.156-0.676-0.258-1.078-0.303
			c-0.402-0.047-0.815-0.067-1.239-0.062l-2.016,0.026l0.056,4.448L556.143,1058.016z"/>
		<path fill="#383A3C" d="M575.179,1053.899c-0.309-0.366-0.734-0.666-1.278-0.897c-0.544-0.232-1.086-0.337-1.625-0.312
			c-0.322,0.013-0.642,0.068-0.959,0.162s-0.604,0.231-0.86,0.41c-0.255,0.18-0.462,0.408-0.617,0.686s-0.226,0.605-0.21,0.985
			c0.016,0.35,0.102,0.646,0.26,0.888c0.155,0.242,0.365,0.445,0.629,0.608c0.263,0.164,0.58,0.304,0.95,0.419
			c0.37,0.116,0.777,0.229,1.222,0.342c0.503,0.14,1.024,0.299,1.566,0.48c0.542,0.181,1.043,0.43,1.503,0.746
			c0.46,0.315,0.843,0.723,1.149,1.222c0.307,0.498,0.477,1.127,0.51,1.886c0.036,0.832-0.086,1.565-0.366,2.199
			c-0.279,0.634-0.666,1.166-1.158,1.597c-0.493,0.432-1.078,0.765-1.756,0.999s-1.396,0.367-2.154,0.4
			c-1.007,0.045-2.001-0.098-2.98-0.428s-1.791-0.847-2.436-1.55l1.891-1.926c0.402,0.509,0.928,0.903,1.576,1.182
			c0.647,0.278,1.279,0.405,1.892,0.378c0.321-0.015,0.647-0.068,0.979-0.164c0.333-0.095,0.629-0.243,0.892-0.444
			c0.262-0.202,0.471-0.448,0.626-0.74s0.224-0.649,0.206-1.073c-0.019-0.408-0.128-0.744-0.329-1.006s-0.468-0.484-0.797-0.667
			c-0.33-0.184-0.716-0.338-1.16-0.465c-0.445-0.127-0.911-0.259-1.4-0.399c-0.474-0.125-0.947-0.279-1.424-0.464
			c-0.476-0.184-0.907-0.436-1.295-0.755c-0.386-0.32-0.707-0.719-0.962-1.197c-0.255-0.479-0.397-1.084-0.429-1.813
			c-0.034-0.788,0.101-1.474,0.404-2.058s0.714-1.074,1.23-1.469c0.517-0.396,1.11-0.699,1.781-0.912
			c0.671-0.212,1.356-0.334,2.057-0.365c0.788-0.033,1.594,0.07,2.416,0.312c0.822,0.242,1.545,0.627,2.167,1.156L575.179,1053.899z
			"/>
		<path fill="#383A3C" d="M581.664,1064.281c-0.029-0.466,0.116-0.877,0.438-1.236c0.32-0.357,0.722-0.552,1.202-0.583
			c0.467-0.03,0.885,0.103,1.257,0.4c0.37,0.298,0.57,0.681,0.601,1.147c0.031,0.467-0.114,0.878-0.436,1.236
			c-0.32,0.357-0.722,0.552-1.203,0.583c-0.233,0.016-0.458-0.013-0.676-0.087c-0.217-0.074-0.409-0.178-0.579-0.312
			c-0.171-0.137-0.31-0.303-0.418-0.501S581.681,1064.516,581.664,1064.281z"/>
		<path fill="#383A3C" d="M600.467,1052.395c-0.457-0.516-1.025-0.872-1.702-1.066c-0.679-0.196-1.331-0.266-1.955-0.209
			c-0.801,0.072-1.515,0.284-2.144,0.635s-1.157,0.801-1.584,1.354s-0.737,1.182-0.931,1.889s-0.253,1.461-0.183,2.262
			c0.076,0.844,0.27,1.604,0.58,2.28c0.311,0.676,0.717,1.244,1.221,1.704c0.503,0.461,1.087,0.801,1.753,1.02
			c0.665,0.218,1.397,0.291,2.197,0.219c0.83-0.075,1.551-0.306,2.161-0.691c0.61-0.385,1.088-0.865,1.433-1.439l2.345,1.351
			c-0.607,0.921-1.384,1.662-2.331,2.225c-0.948,0.562-2.083,0.904-3.406,1.024c-1.209,0.109-2.337,0.009-3.384-0.299
			c-1.047-0.309-1.967-0.79-2.76-1.444c-0.791-0.654-1.437-1.462-1.934-2.422s-0.8-2.044-0.907-3.252
			c-0.112-1.237,0.002-2.373,0.342-3.408c0.34-1.036,0.853-1.938,1.539-2.704c0.688-0.766,1.522-1.385,2.508-1.855
			c0.983-0.471,2.072-0.76,3.266-0.868c0.495-0.045,1.016-0.044,1.562,0.001c0.548,0.047,1.076,0.146,1.59,0.297
			c0.512,0.151,0.999,0.354,1.462,0.604c0.463,0.252,0.865,0.567,1.208,0.946L600.467,1052.395z"/>
		<path fill="#383A3C" d="M607.221,1055.809c-0.16-1.231-0.099-2.37,0.187-3.417c0.283-1.046,0.747-1.966,1.389-2.757
			c0.64-0.791,1.44-1.439,2.397-1.949c0.959-0.508,2.031-0.84,3.22-0.995c1.203-0.156,2.335-0.112,3.398,0.131
			c1.063,0.245,2.01,0.666,2.838,1.265c0.83,0.6,1.515,1.368,2.058,2.307c0.541,0.939,0.893,2.024,1.052,3.256
			c0.157,1.203,0.092,2.327-0.192,3.373c-0.284,1.047-0.749,1.977-1.395,2.791c-0.646,0.813-1.45,1.486-2.412,2.017
			c-0.963,0.531-2.045,0.875-3.248,1.032c-1.188,0.155-2.312,0.1-3.37-0.168c-1.059-0.267-2.001-0.711-2.824-1.332
			c-0.825-0.622-1.508-1.402-2.05-2.341S607.377,1057.012,607.221,1055.809z M610.198,1055.42c0.106,0.826,0.333,1.566,0.675,2.222
			s0.782,1.205,1.319,1.65c0.537,0.446,1.146,0.769,1.827,0.966c0.681,0.199,1.413,0.247,2.195,0.145
			c0.783-0.102,1.48-0.337,2.097-0.705c0.615-0.367,1.125-0.836,1.53-1.404c0.404-0.568,0.69-1.214,0.854-1.935
			c0.165-0.722,0.193-1.496,0.086-2.321c-0.104-0.797-0.326-1.52-0.668-2.168c-0.342-0.647-0.778-1.194-1.307-1.642
			c-0.53-0.446-1.139-0.771-1.828-0.977c-0.689-0.204-1.434-0.255-2.229-0.15c-0.798,0.104-1.5,0.343-2.106,0.718
			c-0.606,0.373-1.109,0.845-1.509,1.412c-0.396,0.567-0.679,1.209-0.843,1.923C610.125,1053.867,610.095,1054.623,610.198,1055.42z
			"/>
		<path fill="#383A3C" d="M628.937,1045.047l4.252-0.755l5.888,10.151l0.064-0.012l2.01-11.554l4.272-0.759l2.699,15.28
			l-2.697,0.479l-2.17-12.281l-0.042,0.008l-2.471,13.105l-1.899,0.337l-6.744-11.468l-0.043,0.007l2.169,12.28l-2.59,0.461
			L628.937,1045.047z"/>
	</g>
	<g transform="matrix(1.61319 0 0 1.7559 142.74 150.3)">
		<path fill="#FFFFFF" d="M252.45,382.5c64.33-1.896,114.529-53.38,104.94-120.58c-4.573-32.01-29.893-69.53-46.633-98.45
			c-19.927-34.422-39.99-63.09-58.3-90.71h-0.001c-18.313,27.628-38.381,56.29-58.301,90.71
			c-16.741,28.919-42.06,66.43-46.633,98.45c-9.6,67.2,40.605,118.69,104.94,120.58"/>
	</g>
	<g transform="matrix(.93219 0 0 1.1036 272.84 121.41)">
		<path fill="#5CA9D6" d="M168.594,543.23c64.33-1.896,114.539-53.38,104.94-120.58c-4.574-32.01-29.893-69.53-46.634-98.45
			c-19.925-34.422-39.99-63.09-58.3-90.71H168.6c-18.312,27.628-38.38,56.29-58.3,90.71c-16.741,28.919-42.059,66.429-46.633,98.45
			c-9.6,67.2,40.604,118.68,104.93,120.58"/>
	</g>
</g>
</svg>
