<?xml version="1.0" encoding="utf-8"?>
<!-- Generator: Adobe Illustrator 20.1.0, SVG Export Plug-In . SVG Version: 6.00 Build 0)  -->
<svg version="1.1" id="Layer_1" xmlns="http://www.w3.org/2000/svg" xmlns:xlink="http://www.w3.org/1999/xlink" x="0px" y="0px"
	 viewBox="0 0 800 400" style="enable-background:new 0 0 800 400;" xml:space="preserve">
<style type="text/css">
	.st0{fill:#237DAC;}
	.st1{fill:#FFFFFF;}
	.st2{fill:#5CA9D6;}
	.st3{fill:#0A0D16;}
</style>
<g>
	<path class="st0" d="M290.1,195c0,65.8-53.3,119.1-119.1,119.1S51.9,260.8,51.9,195S105.2,75.9,171,75.9S290.1,129.2,290.1,195"/>
	<g transform="matrix(1.61319 0 0 1.7559 142.74 150.3)">
		<path class="st1" d="M17.5,59.4c14.1-0.4,25.1-11.7,23-26.4c-1-7-6.5-15.2-10.2-21.5C25.9,3.9,21.5-2.4,17.5-8.4l0,0
			c-4,6-8.4,12.3-12.8,19.9C1.1,17.7-4.4,26-5.4,33C-7.6,47.7,3.4,58.9,17.5,59.4"/>
	</g>
	<path class="st2" d="M144.7,232.4c13.1-0.5,23.4-12.9,21.4-29.1c-0.9-7.7-6.1-16.8-9.5-23.8c-4.1-8.3-8.2-15.2-11.9-21.9l0,0
		c-3.7,6.7-7.8,13.6-11.9,21.9c-3.4,7-8.6,16-9.5,23.8C121.4,219.5,131.6,232,144.7,232.4"/>
</g>
<g>
	<path class="st3" d="M270.6,248.4c-35.4,0-40.2-26.5-40.2-39.3c0-12.6,4.4-44.8,45.8-44.8c9.4,0,17.5,2.7,17.5,2.7v26.9h-16.3v-12
		c0,0-2.1-1.1-6-1.1c-9,0-21.6,7.4-21.6,28c0,13.3,8.1,23.5,23.9,23.5c8.8,0,20.9-4.1,27.6-18.1c0,0,6.2,7.6,7.6,10.1
		c0.4,0.5,0.4,0.9,0.4,1.2C309.3,230.7,298.9,248.4,270.6,248.4"/>
	<path class="st3" d="M338.5,248.1c-28,0-38.6-21.2-38.6-41.9c0-18.9,10.8-41.9,38.6-41.9c28.5,0,38.6,21.8,38.6,41.9
		C377.1,225.2,366.3,248.1,338.5,248.1 M338.5,232.1c14.3,0,18.6-14.9,18.6-26c0-11-4.2-25.8-18.6-25.8c-14.5,0-18.8,14.9-18.8,25.8
		C319.8,217.3,324,232.1,338.5,232.1"/>
	<path class="st3" d="M475.7,215.9l7.4,10.3c0,0,0.5,0.7,0.5,1.4c0,4.2-8.9,19.8-27.8,19.8c-13.8,0-17.9-12.2-17.9-12.2
		c-0.2-0.4-0.4-0.5-0.5-0.5c-0.4,0-0.5,0.4-0.5,0.4c-5,8.7-14.3,13.1-24.9,13.1c-27.8,0-31-26-31-35.9c0-22.6,11.9-48,48.3-48
		c1.6,0,3.4,0,5.1,0.2v-30.1H427v-15.9h26.2V218c0,3.7,1.2,10.4,8.5,10.4C466.1,228.4,472.5,226,475.7,215.9 M434.5,181.4
		c0,0-2.5-1.1-8.8-1.1c-8.8,0-24.8,6.5-24.8,29.2c0,4.6,0.2,20,14.9,20c12,0,18.8-10.3,18.8-19.3V181.4"/>
	<path class="st3" d="M492.8,167.4v13.4c0,0,0,0.7,0.4,0.7c0.2,0,0.4-0.2,0.7-0.7c0.4-0.5,10.1-15.7,30.8-15.7c1.6,0,5,0.2,6,0.9
		v31.5h-15.9v-12.4c-6.7,0-11.5,4.2-14.7,8.7c-5.7,8-6.2,19.1-6.2,22.6v28.8H475v-77.9H492.8"/>
	<path class="st3" d="M572.5,248.1c-28,0-38.6-21.2-38.6-41.9c0-18.9,10.8-41.9,38.6-41.9c28.5,0,38.6,21.8,38.6,41.9
		C611.1,225.2,600.3,248.1,572.5,248.1 M572.5,232.1c14.3,0,18.6-14.9,18.6-26c0-11-4.2-25.8-18.6-25.8c-14.5,0-18.8,14.9-18.8,25.8
		C553.7,217.3,558,232.1,572.5,232.1"/>
	<path class="st3" d="M626.1,200.3c0-0.2,0-0.5-0.2-0.5s-0.4,0-0.5,0.2c0,0-5.7,5.3-16.1,7.6c-5.3,1.2-12.4,2.5-21.8,2.5
		c-2.3,0-4.8,0-7.4-0.2v-15.2c2.3,0.2,4.6,0.2,6.7,0.2c12.4,0,20.5-1.8,26.4-4.6c12-6,13.1-22.8,13.1-22.8h26
		c16.6,0,43.5,4.1,43.5,38.2c0,7.4-0.5,41.1-37.5,41.1c-7.3,0-13.3-2.5-13.3-2.5v49.9h-18.9L626.1,200.3 M675.8,206.3
		c0-16.1-8.1-23.2-25.7-23.2c-1.8,0-3.5,0.2-5.1,0.2V226c0,0,3.9,4.8,12.4,4.8C672.3,230.7,675.8,217.1,675.8,206.3"/>
	<path class="st3" d="M720.2,188.6c-0.4-0.2-1.1-0.5-1.4-0.5c0,0-0.4,0-0.7,0.5c0,0-13.4,21.1-46,21.1c-4.1,0-4.2-0.2-7.1-0.4v-15
		h7.8c37.9,0,44.2-39.3,44.2-39.3h17.2c0,0-1.2,8-5.7,16.8c0,0,20.7,12.2,20.7,37c0,7.1-3.5,38.6-37.5,38.6c-9,0-12.9-2.1-12.9-2.1
		v-15.6c0,0,4.2,2.1,11.1,2.1c7.8,0,20.3-4.6,20.3-22.5C730.3,195,722.9,189.9,720.2,188.6"/>
</g>
</svg>
