<?xml version="1.0"?>
<svg width="1100" height="1100" xmlns="http://www.w3.org/2000/svg">
  <path d="m1096.089966,550c0,300.48999 -243.599976,544.090088 -544.090027,544.090088s-544.089939,-243.600098 -544.089939,-544.090088s243.599995,-544.09 544.09,-544.09s544.089966,243.599995 544.089966,544.09" fill="#237DAC"/>
  <path d="m549.989807,821.931763c103.776489,-3.329163 184.758667,-93.72998 169.288208,-211.72644c-7.377197,-56.20636 -48.223145,-122.087708 -75.227966,-172.868347c-32.145996,-60.441589 -64.511414,-110.779724 -94.04895,-159.277679l-0.001587,0c-29.542358,48.511993 -61.914246,98.8396 -94.048981,159.277679c-27.006439,50.77887 -67.8508,116.644409 -75.227905,172.868347c-15.486603,117.99646 65.503601,208.407776 169.288177,211.72644" fill="#FFFFFF"/>
  <path d="m430.002014,720.919006c59.967987,-2.093018 106.77301,-58.909973 97.823975,-133.072021c-4.263,-35.325989 -27.865967,-76.732971 -43.470978,-108.648987c-18.575012,-37.988007 -37.278015,-69.626007 -54.347015,-100.106995l-0.000977,0c-17.070007,30.48999 -35.777008,62.120972 -54.347015,100.106995c-15.605988,31.915009 -39.208008,73.312012 -43.471008,108.648987c-8.949982,74.161987 37.851013,130.975037 97.814026,133.072021" fill="#5CA9D6"/>
</svg>