<?xml version="1.0" encoding="utf-8"?>
<!-- Generator: Adobe Illustrator 16.0.0, SVG Export Plug-In . SVG Version: 6.00 Build 0)  -->
<!DOCTYPE svg PUBLIC "-//W3C//DTD SVG 1.1//EN" "http://www.w3.org/Graphics/SVG/1.1/DTD/svg11.dtd">
<svg version="1.1" id="Layer_1" xmlns="http://www.w3.org/2000/svg" xmlns:xlink="http://www.w3.org/1999/xlink" x="0px" y="0px"
	 width="800px" height="400px" viewBox="0 0 800 400" enable-background="new 0 0 800 400" xml:space="preserve">
<path fill="#0098CE" d="M-3.701-4.007h810.206v405.103H-3.701V-4.007z"/>
<g>
	<path fill="#237DAC" d="M290.09,195c0,65.771-53.318,119.09-119.09,119.09S51.91,260.771,51.91,195
		c0-65.771,53.318-119.09,119.09-119.09S290.09,129.229,290.09,195"/>
	<g transform="matrix(1.61319 0 0 1.7559 142.74 150.3)">
		<path fill="#FFFFFF" d="M17.517,59.354c14.08-0.415,25.068-11.684,22.969-26.393c-1.001-7.006-6.543-15.219-10.207-21.548
			C25.917,3.879,21.526-2.396,17.518-8.441l0,0C13.51-2.394,9.117,3.879,4.758,11.413c-3.665,6.33-9.206,14.54-10.207,21.548
			C-7.551,47.671,3.438,58.94,17.519,59.354"/>
	</g>
	<path fill="#5CA9D6" d="M144.735,232.411c13.125-0.458,23.37-12.896,21.411-29.127c-0.933-7.732-6.099-16.796-9.515-23.781
		c-4.066-8.314-8.159-15.24-11.896-21.912l0,0c-3.736,6.673-7.832,13.597-11.895,21.912c-3.416,6.985-8.582,16.046-9.516,23.781
		C121.367,219.516,131.61,231.951,144.735,232.411"/>
</g>
<g>
	<path fill="#FFFFFF" d="M270.58,248.43c-35.391,0-40.17-26.544-40.17-39.279c0-12.564,4.424-44.771,45.832-44.771
		c9.379,0,17.519,2.654,17.519,2.654v26.897h-16.28V181.9c0,0-2.124-1.062-6.02-1.062c-9.02,0-21.589,7.432-21.589,27.959
		c0,13.271,8.14,23.535,23.889,23.535c8.848,0,20.881-4.07,27.605-18.05c0,0,6.193,7.608,7.609,10.09
		c0.354,0.53,0.354,0.885,0.354,1.237c-0.001,5.134-10.441,22.83-38.754,22.83"/>
	<path fill="#FFFFFF" d="M338.53,248.07c-27.959,0-38.577-21.234-38.577-41.938c0-18.934,10.794-41.938,38.577-41.938
		c28.49,0,38.576,21.766,38.576,41.938C377.106,225.242,366.312,248.07,338.53,248.07 M338.53,232.145
		c14.333,0,18.58-14.865,18.58-26.011c0-10.971-4.247-25.835-18.58-25.835c-14.511,0-18.757,14.864-18.757,25.835
		C319.772,217.283,324.019,232.145,338.53,232.145"/>
	<path fill="#FFFFFF" d="M475.68,215.87l7.434,10.264c0,0,0.531,0.708,0.531,1.416c0,4.247-8.85,19.818-27.782,19.818
		c-13.804,0-17.873-12.21-17.873-12.21c-0.177-0.354-0.354-0.53-0.53-0.53c-0.354,0-0.531,0.354-0.531,0.354
		c-4.955,8.67-14.333,13.09-24.949,13.09c-27.784,0-30.969-26.01-30.969-35.922c0-22.65,11.856-47.956,48.311-47.956
		c1.593,0,3.361,0,5.132,0.177v-30.08h-7.433v-15.926h26.19v99.63c0,3.716,1.238,10.439,8.493,10.439
		c4.424,0.002,10.794-2.477,13.979-12.563 M434.452,181.366c0,0-2.479-1.062-8.849-1.062c-8.848,0-24.773,6.547-24.773,29.2
		c0,4.602,0.177,19.996,14.864,19.996c12.029,0,18.758-10.264,18.758-19.288v-28.844"/>
	<path fill="#FFFFFF" d="M492.84,167.38v13.449c0,0,0,0.708,0.354,0.708c0.177,0,0.354-0.177,0.708-0.708
		c0.354-0.531,10.09-15.749,30.79-15.749c1.593,0,4.955,0.177,6.02,0.885v31.498h-15.926v-12.387
		c-6.726,0-11.502,4.247-14.688,8.671c-5.662,7.963-6.192,19.11-6.192,22.649v28.845H474.97V167.38h17.873"/>
	<path fill="#FFFFFF" d="M572.48,248.07c-27.959,0-38.576-21.234-38.576-41.938c0-18.934,10.794-41.938,38.576-41.938
		c28.489,0,38.576,21.766,38.576,41.938C611.058,225.242,600.263,248.07,572.48,248.07 M572.48,232.145
		c14.334,0,18.58-14.865,18.58-26.011c0-10.971-4.246-25.835-18.58-25.835c-14.511,0-18.758,14.864-18.758,25.835
		C553.724,217.283,557.971,232.145,572.48,232.145"/>
	<path fill="#FFFFFF" d="M626.1,200.3c0-0.177,0-0.531-0.177-0.531s-0.354,0-0.531,0.177c0,0-5.661,5.309-16.1,7.609
		c-5.309,1.238-12.387,2.479-21.766,2.479c-2.302,0-4.778,0-7.434-0.178v-15.218c2.302,0.177,4.603,0.177,6.726,0.177
		c12.387,0,20.526-1.77,26.365-4.601c12.03-6.02,13.101-22.828,13.101-22.828h26.01c16.634,0,43.531,4.07,43.531,38.221
		c0,7.433-0.53,41.06-37.516,41.06c-7.255,0-13.271-2.478-13.271-2.478v49.9h-18.936v-93.78 M675.829,206.328
		c0-16.1-8.14-23.18-25.658-23.18c-1.77,0-3.539,0.177-5.132,0.177v42.646c0,0,3.893,4.777,12.387,4.777
		C672.29,230.749,675.829,217.124,675.829,206.328"/>
	<path fill="#FFFFFF" d="M720.24,188.62c-0.354-0.177-1.062-0.531-1.416-0.531c0,0-0.354,0-0.708,0.531
		c0,0-13.448,21.06-46.011,21.06c-4.069,0-4.246-0.177-7.077-0.354v-15.04h7.784c37.869,0,44.24-39.28,44.24-39.28h17.16
		c0,0-1.238,7.963-5.663,16.811c0,0,20.704,12.21,20.704,36.984c0,7.078-3.539,38.576-37.515,38.576
		c-9.021,0-12.919-2.123-12.919-2.123v-15.572c0,0,4.247,2.125,11.148,2.125c7.786,0,20.35-4.603,20.35-22.475
		c0.001-14.333-7.43-19.465-10.08-20.704"/>
</g>
</svg>
