<?xml version="1.0" encoding="utf-8"?>
<!-- Generator: Adobe Illustrator 16.0.0, SVG Export Plug-In . SVG Version: 6.00 Build 0)  -->
<!DOCTYPE svg PUBLIC "-//W3C//DTD SVG 1.1//EN" "http://www.w3.org/Graphics/SVG/1.1/DTD/svg11.dtd">
<svg version="1.1" id="Layer_1" xmlns="http://www.w3.org/2000/svg" xmlns:xlink="http://www.w3.org/1999/xlink" x="0px" y="0px"
	 width="1100px" height="1100px" viewBox="0 0 1100 1100" enable-background="new 0 0 1100 1100" xml:space="preserve">
<path fill="#FFFFFF" d="M1079.84,550c0,292.62-237.22,529.84-529.84,529.84S20.16,842.62,20.16,550S257.38,20.16,550,20.16
	S1079.84,257.38,1079.84,550"/>
<g>
	<path fill="#237DAC" d="M1038.585,550c0,269.835-218.749,488.585-488.585,488.585S61.415,819.835,61.415,550
		C61.415,280.164,280.164,61.415,550,61.415S1038.585,280.164,1038.585,550"/>
	<g transform="matrix(1.61319 0 0 1.7559 142.74 150.3)">
		<path fill="#FFFFFF" d="M252.45,382.5c64.33-1.896,114.529-53.38,104.94-120.58c-4.573-32.01-29.893-69.53-46.633-98.45
			c-19.927-34.422-39.99-63.09-58.3-90.71h-0.001c-18.313,27.628-38.381,56.29-58.301,90.71
			c-16.741,28.919-42.06,66.43-46.633,98.45c-9.6,67.2,40.605,118.69,104.94,120.58"/>
	</g>
	<g transform="matrix(.93219 0 0 1.1036 272.84 121.41)">
		<path fill="#5CA9D6" d="M168.594,543.23c64.33-1.896,114.538-53.38,104.94-120.58c-4.575-32.01-29.893-69.53-46.635-98.45
			c-19.924-34.422-39.99-63.09-58.3-90.71l0,0c-18.312,27.628-38.38,56.29-58.3,90.71c-16.741,28.919-42.059,66.429-46.633,98.45
			c-9.6,67.2,40.604,118.68,104.931,120.58"/>
	</g>
</g>
</svg>
